<svg id="Capa_1" data-name="Capa 1" xmlns="http://www.w3.org/2000/svg" viewBox="0 0 168.11 218.07"><defs><style>.cls-1{fill:#7ab542;}.cls-2{fill:#7bb642;}.cls-3{fill:#7cb642;}.cls-4{fill:#7db742;}.cls-5{fill:#7eb742;}.cls-6{fill:#7fb842;}.cls-7{fill:#80b842;}.cls-8{fill:#81b942;}.cls-9{fill:#82b942;}.cls-10{fill:#82ba42;}.cls-11{fill:#83ba42;}.cls-12{fill:#84bb42;}.cls-13{fill:#85bb42;}.cls-14{fill:#86bc42;}.cls-15{fill:#87bc42;}.cls-16{fill:#88bd41;}.cls-17{fill:#89bd41;}.cls-18{fill:#8abe41;}.cls-19{fill:#8bbe41;}.cls-20{fill:#8cbf41;}.cls-21{fill:#8dc041;}.cls-22{fill:#8ec041;}.cls-23{fill:#8fc141;}.cls-24{fill:#90c141;}.cls-25{fill:#91c241;}.cls-26{fill:#92c241;}.cls-27{fill:#93c341;}.cls-28{fill:#94c341;}.cls-29{fill:#95c441;}.cls-30{fill:#96c441;}.cls-31{fill:#97c540;}.cls-32{fill:#98c640;}.cls-33{fill:#99c740;}.cls-34{fill:#9ac740;}.cls-35{fill:#9bc840;}.cls-36{fill:#9cc940;}.cls-37{fill:#9dc940;}.cls-38{fill:#9eca40;}.cls-39{fill:#9fcb40;}.cls-40{fill:#a0cb40;}.cls-41{fill:#a0cc40;}.cls-42{fill:#a1cd40;}.cls-43{fill:#7ba43f;}.cls-43,.cls-44{fill-rule:evenodd;}.cls-44,.cls-45{fill:#010101;}</style></defs><title>spotify_logo</title><circle class="cls-1" cx="105.3" cy="103.19" r="84.05" transform="translate(-29.85 177.66) rotate(-83.83)"/><circle class="cls-2" cx="105.3" cy="102.61" r="82.7" transform="translate(-29.49 176.88) rotate(-83.7)"/><circle class="cls-3" cx="105.3" cy="102.03" r="81.34" transform="translate(-29.14 176.09) rotate(-83.56)"/><circle class="cls-4" cx="105.3" cy="101.46" r="79.98" transform="translate(-28.81 175.3) rotate(-83.42)"/><circle class="cls-5" cx="105.3" cy="100.88" r="78.62" transform="translate(-28.48 174.48) rotate(-83.26)"/><circle class="cls-6" cx="105.3" cy="100.3" r="77.27" transform="translate(-28.17 173.66) rotate(-83.1)"/><circle class="cls-7" cx="105.3" cy="99.73" r="75.91" transform="translate(-27.87 172.82) rotate(-82.93)"/><circle class="cls-8" cx="105.3" cy="99.15" r="74.55" transform="matrix(0.13, -0.99, 0.99, 0.13, -27.59, 171.96)"/><circle class="cls-9" cx="105.3" cy="98.57" r="73.19" transform="translate(-27.33 171.09) rotate(-82.56)"/><circle class="cls-10" cx="105.3" cy="98" r="71.84" transform="translate(-27.08 170.19) rotate(-82.36)"/><circle class="cls-11" cx="105.3" cy="97.42" r="70.48" transform="translate(-26.85 169.28) rotate(-82.14)"/><circle class="cls-12" cx="105.3" cy="96.84" r="69.12" transform="translate(-26.64 168.34) rotate(-81.91)"/><circle class="cls-13" cx="105.3" cy="96.27" r="67.77" transform="matrix(0.14, -0.99, 0.99, 0.14, -26.46, 167.37)"/><circle class="cls-14" cx="105.3" cy="95.69" r="66.41" transform="translate(-26.3 166.37) rotate(-81.4)"/><circle class="cls-15" cx="105.3" cy="95.11" r="65.05" transform="matrix(0.15, -0.99, 0.99, 0.15, -26.17, 165.34)"/><circle class="cls-16" cx="105.3" cy="94.54" r="63.69" transform="translate(-26.07 164.28) rotate(-80.82)"/><circle class="cls-17" cx="105.3" cy="93.96" r="62.34" transform="translate(-26 163.17) rotate(-80.5)"/><circle class="cls-18" cx="105.3" cy="93.38" r="60.98" transform="translate(-25.97 162.02) rotate(-80.15)"/><circle class="cls-19" cx="105.3" cy="92.8" r="59.62" transform="matrix(0.18, -0.98, 0.98, 0.18, -25.98, 160.82)"/><circle class="cls-20" cx="105.3" cy="92.23" r="58.26" transform="translate(-26.03 159.56) rotate(-79.36)"/><circle class="cls-20" cx="105.3" cy="91.65" r="56.91" transform="translate(-26.14 158.23) rotate(-78.91)"/><circle class="cls-21" cx="105.3" cy="91.07" r="55.55" transform="translate(-26.3 156.83) rotate(-78.42)"/><circle class="cls-22" cx="105.3" cy="90.5" r="54.19" transform="translate(-26.52 155.34) rotate(-77.89)"/><circle class="cls-23" cx="105.3" cy="89.92" r="52.83" transform="translate(-26.82 153.75) rotate(-77.3)"/><circle class="cls-24" cx="105.3" cy="89.34" r="51.48" transform="translate(-27.19 152.04) rotate(-76.65)"/><circle class="cls-25" cx="105.3" cy="88.77" r="50.12" transform="translate(-27.65 150.21) rotate(-75.93)"/><circle class="cls-26" cx="105.3" cy="88.19" r="48.76" transform="translate(-28.2 148.21) rotate(-75.13)"/><circle class="cls-27" cx="105.3" cy="87.61" r="47.41" transform="translate(-28.87 146.03) rotate(-74.24)"/><circle class="cls-28" cx="105.3" cy="87.04" r="46.05" transform="matrix(0.29, -0.96, 0.96, 0.29, -29.66, 143.62)"/><circle class="cls-29" cx="105.3" cy="86.46" r="44.69" transform="translate(-30.59 140.96) rotate(-72.1)"/><circle class="cls-30" cx="105.3" cy="85.88" r="43.33" transform="matrix(0.33, -0.94, 0.94, 0.33, -31.66, 137.99)"/><circle class="cls-31" cx="105.3" cy="85.31" r="41.98" transform="translate(-32.9 134.64) rotate(-69.36)"/><circle class="cls-31" cx="105.3" cy="84.73" r="40.62" transform="translate(-34.31 130.85) rotate(-67.69)"/><circle class="cls-32" cx="105.3" cy="84.15" r="39.26" transform="translate(-35.89 126.54) rotate(-65.78)"/><circle class="cls-33" cx="105.3" cy="83.58" r="37.9" transform="translate(-37.63 121.61) rotate(-63.6)"/><circle class="cls-34" cx="105.3" cy="83" r="36.55" transform="translate(-39.49 115.98) rotate(-61.12)"/><circle class="cls-35" cx="105.3" cy="82.42" r="35.19" transform="translate(-41.41 109.58) rotate(-58.3)"/><circle class="cls-36" cx="105.3" cy="81.85" r="33.83" transform="translate(-43.29 102.37) rotate(-55.15)"/><circle class="cls-37" cx="105.3" cy="81.27" r="32.47" transform="translate(-47.87 79.13) rotate(-45)"/><circle class="cls-38" cx="105.3" cy="80.69" r="31.12" transform="translate(-47.47 78.96) rotate(-45)"/><circle class="cls-39" cx="105.3" cy="80.12" r="29.76" transform="translate(-47.06 78.79) rotate(-45)"/><circle class="cls-40" cx="105.3" cy="79.54" r="28.4" transform="translate(-46.65 78.62) rotate(-45)"/><circle class="cls-41" cx="105.3" cy="78.96" r="27.04" transform="translate(-47.56 59.27) rotate(-36.62)"/><circle class="cls-42" cx="105.3" cy="78.39" r="25.69" transform="translate(-46.97 51.21) rotate(-33.15)"/><path class="cls-43" d="M166.73,86.26A7.8,7.8,0,0,1,155,93.05a94.16,94.16,0,0,0-11.2-5.46A119.58,119.58,0,0,0,120,81a149,149,0,0,0-17.1-2A159.71,159.71,0,0,0,85,78.91a126.41,126.41,0,0,0-20.33,2.55c-2.47.53-4.91,1.21-7.36,1.86a8.09,8.09,0,0,1-4.47,0A7.8,7.8,0,0,1,47.22,76a7.64,7.64,0,0,1,5.2-7.49c2.36-.78,4.79-1.39,7.21-2a135.44,135.44,0,0,1,18.25-2.81,162.18,162.18,0,0,1,19.59-.6c16.11.46,31.9,2.81,47.19,8.09a100.2,100.2,0,0,1,17.93,8.15,7.78,7.78,0,0,1,3.91,5.17A15.77,15.77,0,0,1,166.73,86.26Z" transform="translate(-21.25 -19.13)"/><path class="cls-43" d="M90.64,105a103.58,103.58,0,0,0-29,4.08,6.88,6.88,0,0,1-4.67-.12,6.5,6.5,0,0,1-4-6.16,6.34,6.34,0,0,1,4.44-6c2.71-.83,5.45-1.54,8.22-2.16a114.88,114.88,0,0,1,20.67-2.57,127,127,0,0,1,43.93,5.95,99.69,99.69,0,0,1,20.67,9.23l1,.59A6.5,6.5,0,0,1,145.06,119c-1.81-1-3.6-2.08-5.45-3a99.51,99.51,0,0,0-26.82-8.89A120.35,120.35,0,0,0,90.64,105Z" transform="translate(-21.25 -19.13)"/><path class="cls-43" d="M92.14,119.27a103.88,103.88,0,0,1,32.36,5.15,85.52,85.52,0,0,1,16.56,7.6,13.28,13.28,0,0,1,1.34.86,5.18,5.18,0,0,1-5.22,8.87,11.72,11.72,0,0,1-1.39-.77,79.23,79.23,0,0,0-28.7-10.1,98.6,98.6,0,0,0-18.88-1A136.57,136.57,0,0,0,64,133.06a12.16,12.16,0,0,1-2.46.35,5,5,0,0,1-5-4.11,5.11,5.11,0,0,1,3.1-5.8,8.93,8.93,0,0,1,1.53-.44,145.68,145.68,0,0,1,19.8-3.14C84.67,119.6,88.41,119.48,92.14,119.27Z" transform="translate(-21.25 -19.13)"/><path class="cls-44" d="M166.73,86.71A7.8,7.8,0,0,1,155,93.5,94.16,94.16,0,0,0,143.78,88,118.88,118.88,0,0,0,120,81.46a151.28,151.28,0,0,0-17.1-2A159.71,159.71,0,0,0,85,79.36a127.54,127.54,0,0,0-20.33,2.55c-2.47.54-4.91,1.21-7.36,1.86a8.09,8.09,0,0,1-4.47,0,7.82,7.82,0,0,1-5.62-7.32A7.65,7.65,0,0,1,52.42,69c2.36-.78,4.79-1.39,7.21-2a135.44,135.44,0,0,1,18.25-2.81,164.25,164.25,0,0,1,19.59-.6c16.11.46,31.9,2.82,47.19,8.09a101.63,101.63,0,0,1,17.93,8.15A7.8,7.8,0,0,1,166.5,85,15.77,15.77,0,0,1,166.73,86.71Z" transform="translate(-21.25 -19.13)"/><path class="cls-44" d="M90.64,105.48a103.23,103.23,0,0,0-29,4.09,6.94,6.94,0,0,1-4.67-.13,6.48,6.48,0,0,1-4-6.16,6.35,6.35,0,0,1,4.44-6q4.06-1.23,8.22-2.15a114.9,114.9,0,0,1,20.67-2.58,127,127,0,0,1,43.93,6,100.22,100.22,0,0,1,20.67,9.23l1,.59a6.51,6.51,0,0,1-6.74,11.13c-1.81-1-3.6-2.09-5.45-3a99.18,99.18,0,0,0-26.82-8.9A121.22,121.22,0,0,0,90.64,105.48Z" transform="translate(-21.25 -19.13)"/><path class="cls-44" d="M92.14,119.72a103.88,103.88,0,0,1,32.36,5.15,86.12,86.12,0,0,1,16.56,7.6,15.3,15.3,0,0,1,1.34.86,5.18,5.18,0,0,1-5.22,8.87,13.28,13.28,0,0,1-1.39-.76,79.25,79.25,0,0,0-28.7-10.11,98.6,98.6,0,0,0-18.88-1A136.58,136.58,0,0,0,64,133.52a12.91,12.91,0,0,1-2.46.35,5,5,0,0,1-5-4.11,5.13,5.13,0,0,1,3.1-5.81,9.93,9.93,0,0,1,1.53-.44,148.86,148.86,0,0,1,19.8-3.14C84.67,120.06,88.41,119.93,92.14,119.72Z" transform="translate(-21.25 -19.13)"/><path class="cls-45" d="M34.73,225.94l3.87-4.71c2.67,2.25,5.48,3.67,8.87,3.67,2.68,0,4.29-1.08,4.29-2.85V222c0-1.69-1-2.55-6-3.85-6-1.55-9.85-3.24-9.85-9.24v-.09c0-5.48,4.33-9.11,10.41-9.11a17,17,0,0,1,11,3.85l-3.4,5c-2.63-1.85-5.22-3-7.73-3s-3.82,1.17-3.82,2.64v.09c0,2,1.27,2.63,6.41,4,6,1.6,9.43,3.8,9.43,9.07v.08c0,6-4.5,9.38-10.91,9.38A18.74,18.74,0,0,1,34.73,225.94Z" transform="translate(-21.25 -19.13)"/><path class="cls-45" d="M113.05,223.78V212.59h-2.84v-5.27h2.84v-6H119v6h5.94v5.27H119v10.34c0,1.9,1.18,2.34,2.63,2.34a6.72,6.72,0,0,0,3.22-.91v5a9.44,9.44,0,0,1-5.11,1.33C115.74,230.73,113.05,229.14,113.05,223.78Z" transform="translate(-21.25 -19.13)"/><rect class="cls-45" x="105.95" y="188.37" width="5.84" height="22.85"/><path class="cls-45" d="M144,207.46v-1.13c0-1.72,1.32-2.5,2.83-2.5a8.45,8.45,0,0,1,3,.56V199.2a14.8,14.8,0,0,0-4.66-.64,6.67,6.67,0,0,0-5.08,1.8,7.62,7.62,0,0,0-2,5.59v1.46H135.3v5.14H138v17.69h6.08V212.56h4.73L156,230a3,3,0,0,1-2.68,2.1,7.07,7.07,0,0,1-3-1l-2.14,4.53a12.53,12.53,0,0,0,6.23,1.57c4.09,0,6-3.5,6.73-5.3l9.41-24.4H164.4l-5.49,15.56-6-15.61H144Z" transform="translate(-21.25 -19.13)"/><circle class="cls-45" cx="108.86" cy="181.88" r="3.66"/><path class="cls-45" d="M171,211v0a3.62,3.62,0,0,1,7.24,0v0a3.62,3.62,0,0,1-7.24,0Zm6.82,0v0a3.2,3.2,0,1,0-6.4,0v0a3.2,3.2,0,1,0,6.4,0Zm-4.69-2h1.71a1.62,1.62,0,0,1,1.19.42,1.15,1.15,0,0,1,.32.84v0a1.19,1.19,0,0,1-.83,1.19l.94,1.38h-1l-.82-1.24H174v1.24h-.85Zm1.7,1.88c.43,0,.66-.23.66-.55v0c0-.37-.26-.56-.68-.56H174v1.13Z" transform="translate(-21.25 -19.13)"/><path class="cls-45" d="M97.81,207a12,12,0,0,0-12.23,12V219a12.14,12.14,0,0,0,24.27-.08v-.09A11.77,11.77,0,0,0,97.81,207Zm-.1,18.83a6.84,6.84,0,1,1,6.37-6.83A6.61,6.61,0,0,1,97.71,225.78Z" transform="translate(-21.25 -19.13)"/><path class="cls-45" d="M73.65,207c-3.75,0-6,1.35-7.6,3.48v-3.06H60.23v29.68h5.94v-9.7a8.59,8.59,0,0,0,7,3.42c5.34,0,10.72-4.18,10.72-11.81v-.09C83.91,211.25,78.76,207,73.65,207ZM72,225.63c-3.32,0-6-3-6-6.76s2.69-6.76,6-6.76,6,3,6,6.76S75.33,225.63,72,225.63Z" transform="translate(-21.25 -19.13)"/></svg>